<svg width="575" height="167" viewBox="0 0 575 167" fill="none" xmlns="http://www.w3.org/2000/svg">
<path d="M88.175 42.9854C91.1077 40.0246 98.4411 31.6969 98.4411 21.7008C98.4411 11.7047 91.1077 3.38065 88.175 0.416204C87.6254 -0.138735 86.5261 -0.138735 85.9765 0.416204C83.0438 3.37707 75.7104 11.7047 75.7104 21.7008C75.7104 31.6969 83.0438 40.0246 85.9765 42.9854C86.5261 43.7265 87.6254 43.7265 88.175 42.9854Z" fill="#1B1CD6"/>
<path d="M21.8131 51.4991C29.5117 57.7931 40.5117 57.2382 44.5437 56.8659C45.4621 56.8659 46.0117 55.9422 46.0117 55.1975C45.6429 51.1267 43.6288 40.0243 35.9301 33.9164C28.4159 27.6223 17.2315 27.9947 13.1995 28.5496C12.2811 28.5496 11.7314 29.4733 11.7314 30.2144C12.2811 34.2852 14.1144 45.3911 21.8131 51.4991Z" fill="#1B1CD6"/>
<path d="M63.6112 40.7658C64.5261 40.9484 65.2601 40.5796 65.6289 39.6559C66.5438 36.1401 68.3772 27.2539 64.5296 20.2259C60.6821 13.1907 52.2494 10.0472 48.7636 8.93377C47.8487 8.74759 47.1147 9.11994 46.7494 10.0472C45.831 13.563 43.9976 22.4456 47.8487 29.4808C51.8806 36.5125 60.3133 39.6595 63.6147 40.7694" fill="#1B1CD6"/>
<path d="M57.9267 48.3524C57.0083 48.535 56.4586 49.4623 56.8274 50.386C57.7458 53.1643 59.9444 59.086 64.8913 61.8607C69.8416 64.6354 75.8913 63.7117 78.824 62.9706C79.7424 62.7844 80.292 61.8607 79.9233 60.9334C79.0084 58.1552 76.8098 52.2334 71.8594 49.4587C66.909 46.684 60.8593 47.6077 57.9267 48.3488" fill="#1B1CD6"/>
<path d="M73.6927 79.6294C74.4268 79.0745 74.6076 78.1472 74.058 77.4096C72.2247 75.0037 67.6431 69.6369 61.5934 68.7096C55.3629 67.5997 49.4976 71.1155 46.9302 72.7839C46.1962 73.3389 46.0153 74.2626 46.565 75.0037C48.3983 77.4096 52.9799 82.7764 59.0296 83.7001C65.0792 84.81 71.1254 81.4804 73.6927 79.6294Z" fill="#1B1CD6"/>
<path d="M65.8098 92.5863C63.2424 94.065 57.5615 97.5808 55.7282 103.32C53.8948 109.056 56.097 115.35 57.3771 117.942C57.7459 118.865 58.6608 119.052 59.5757 118.679C62.1431 117.197 67.824 113.685 69.6573 107.946C71.4907 102.21 69.2885 95.916 68.0084 93.3239C67.6396 92.5863 66.7247 92.214 65.8098 92.5863Z" fill="#1B1CD6"/>
<path d="M46.5614 88.512C42.8947 88.1432 33.728 87.957 27.1286 93.1412C20.7137 98.3219 18.8804 107.577 18.5151 111.279C18.3307 112.203 19.0648 112.944 19.9797 113.13C23.6464 113.499 32.8131 113.685 39.4124 108.501C45.8273 103.32 47.6607 94.0649 48.0295 90.3629C48.0295 89.2531 47.4798 88.512 46.5649 88.512H46.5614Z" fill="#1B1CD6"/>
<path d="M35.3805 72.9664C32.8166 70.3743 26.0329 64.4526 17.9655 64.4526C9.89809 64.4526 3.11792 70.1917 0.550534 72.5977C-0.183511 73.1526 -0.183511 74.2625 0.550534 74.8174C3.11792 77.4095 9.89809 83.3313 17.9655 83.3313C26.0329 83.3313 32.8131 77.5921 35.3805 75.1862C35.9301 74.6312 35.9301 73.5214 35.3805 72.9664Z" fill="#1B1CD6"/>
<path d="M129.42 56.866C133.452 57.2347 144.452 57.7897 152.151 51.4992C159.849 45.2087 161.683 34.2853 162.232 30.2146C162.417 29.2909 161.683 28.5497 160.764 28.5497C156.732 28.181 145.732 27.626 138.034 33.9166C130.335 40.2071 128.502 51.1268 127.952 55.1976C127.952 55.9387 128.686 56.6798 129.42 56.866Z" fill="#1B1CD6"/>
<path d="M110.537 40.7656C114.019 39.6557 122.452 36.5087 126.303 29.477C130.154 22.4418 128.501 13.5592 127.402 10.0434C127.221 9.11972 126.303 8.74737 125.388 8.92996C121.906 10.0434 113.473 13.1869 109.622 20.2221C105.771 27.2537 107.423 36.1363 108.523 39.6521C108.703 40.3932 109.622 40.9482 110.537 40.762" fill="#1B1CD6"/>
<path d="M95.3239 62.7879C98.0722 63.529 104.306 64.4527 109.257 61.678C114.207 58.9033 116.406 52.9815 117.32 50.2033C117.505 49.276 117.14 48.3523 116.221 48.1661C113.469 47.425 107.239 46.5013 102.288 49.276C97.3417 52.0507 95.1395 57.976 94.2246 60.7507C93.8558 61.6744 94.4055 62.6017 95.3239 62.7879Z" fill="#1B1CD6"/>
<path d="M127.402 72.7838C124.838 71.119 118.785 67.5996 112.739 68.7095C106.509 69.8229 102.108 75.0035 100.274 77.4095C99.7248 78.1506 99.9057 79.0743 100.643 79.6292C103.207 81.294 109.257 84.8099 115.306 83.7C121.537 82.5901 125.938 77.4095 127.771 75.0035C128.321 74.2624 128.136 73.3387 127.402 72.7838Z" fill="#1B1CD6"/>
<path d="M108.338 92.5863C107.604 92.2139 106.505 92.4001 106.14 93.3238C104.856 96.0985 102.657 102.393 104.491 107.946C106.324 113.685 112.008 117.201 114.572 118.679C115.306 119.052 116.406 118.865 116.771 117.942C118.055 115.163 120.253 108.873 118.42 103.32C116.587 97.5807 110.906 94.0649 108.338 92.5863Z" fill="#1B1CD6"/>
<path d="M146.835 93.1412C140.42 87.957 131.069 88.1432 127.402 88.512C126.487 88.512 125.938 89.4392 125.938 90.3629C126.303 94.0649 128.136 103.32 134.551 108.501C140.966 113.685 150.317 113.499 153.984 113.13C154.899 113.13 155.452 112.203 155.452 111.279C155.087 107.577 153.434 98.3219 146.835 93.1412Z" fill="#1B1CD6"/>
<path d="M173.597 72.5975C171.03 70.0054 164.065 64.2699 156.182 64.456C148.299 64.6386 141.335 70.5639 138.767 72.9699C138.218 73.5248 138.218 74.6347 138.767 75.1896C141.335 77.7817 148.299 83.5209 156.182 83.3347C164.25 83.3347 171.03 77.2268 173.597 74.8209C174.331 74.2659 174.331 73.3386 173.597 72.6011" fill="#1B1CD6"/>
<path d="M92.207 77.2234C92.0226 74.4451 89.824 72.2253 87.0723 72.2253C84.3205 72.2253 82.1219 74.4451 81.941 77.2234C81.207 93.1412 78.824 142.556 73.6928 161.245C72.9587 163.654 74.7921 166.243 77.3594 166.243H96.6078C99.1751 166.243 101.008 163.833 100.274 161.245C95.3241 142.556 92.9411 93.1376 92.207 77.2234Z" fill="#1B1CD6"/>
<path d="M201.658 37.8621C201.658 14.2861 219.147 0.0975342 237.747 0.0975342C256.346 0.0975342 266.761 10.9171 269.995 23.5733L258.573 27.4507C256.449 18.6719 249.779 11.6295 237.75 11.6295C225.722 11.6295 214.094 20.3045 214.094 37.8585C214.094 55.4125 225.619 63.7831 237.849 63.7831C250.08 63.7831 256.754 56.0247 259.179 47.8617L270.3 51.535C267.066 63.7831 256.147 75.5192 237.849 75.5192C218.541 75.5192 201.661 61.4345 201.661 37.8585L201.658 37.8621Z" fill="#1B1CD6"/>
<path d="M289.201 45.5169L301.836 43.5764C304.665 43.1683 305.474 41.7398 305.474 40.0033C305.474 35.818 302.644 32.449 296.172 32.449C289.701 32.449 286.57 36.4302 286.062 41.4319L275.346 38.983C276.257 30.4082 283.938 22.7537 296.07 22.7537C311.233 22.7537 316.995 31.4286 316.995 41.328V66.0282C316.995 70.5178 317.499 73.4787 317.602 73.9907H306.683C306.584 73.6828 306.18 71.642 306.18 67.6644C303.853 71.4415 299.002 75.523 291.016 75.523C280.704 75.523 274.335 68.3804 274.335 60.5218C274.335 51.6427 280.804 46.7449 289.197 45.5169H289.201ZM305.477 53.3756V51.1308L292.64 53.0713C289.002 53.6835 286.07 55.7242 286.07 59.8057C286.07 63.1747 288.598 66.2359 293.247 66.2359C299.818 66.2359 305.477 63.0709 305.477 53.3756Z" fill="#1B1CD6"/>
<path d="M340.35 73.994H328.623V24.2894H340.045V30.9236C343.279 25.2095 349.144 22.8608 354.602 22.8608C366.63 22.8608 372.393 31.6396 372.393 42.5594V73.994H360.665V44.6001C360.665 38.4779 357.935 33.5765 350.556 33.5765C343.885 33.5765 340.346 38.7822 340.346 45.3126V73.9905L340.35 73.994Z" fill="#1B1CD6"/>
<path d="M431.329 49.0899C431.329 64.399 420.513 75.5229 405.754 75.5229C390.995 75.5229 380.279 64.399 380.279 49.0899C380.279 33.7807 391.095 22.7571 405.754 22.7571C420.414 22.7571 431.329 33.8809 431.329 49.0899ZM419.503 49.0899C419.503 38.7823 413.035 33.4728 405.754 33.4728C398.474 33.4728 392.006 38.7787 392.006 49.0899C392.006 59.401 398.577 64.911 405.754 64.911C412.932 64.911 419.503 59.5012 419.503 49.0899Z" fill="#1B1CD6"/>
<path d="M440.127 93.3849V24.2896H451.45V31.0241C453.875 26.7385 459.538 23.1654 467.12 23.1654C481.677 23.1654 489.865 34.3931 489.865 49.09C489.865 63.787 480.868 75.2187 466.716 75.2187C459.641 75.2187 454.283 72.1576 451.755 68.3804V93.3849H440.131H440.127ZM464.893 33.677C457.209 33.677 451.652 39.7993 451.652 49.09C451.652 58.3808 457.212 64.7071 464.893 64.7071C472.574 64.7071 478.134 58.5849 478.134 49.09C478.134 39.5952 472.776 33.677 464.893 33.677Z" fill="#1B1CD6"/>
<path d="M498.858 94.101L510.684 68.0761L489.659 24.2932H502.9L517.053 55.7278L530.294 24.2932H542.727L511.39 94.1046H498.854L498.858 94.101Z" fill="#1B1CD6"/>
<path d="M201.658 128.586C201.658 105.01 219.147 90.8251 237.747 90.8251C256.346 90.8251 266.761 101.645 269.995 114.301L258.573 118.178C256.449 109.399 249.779 102.357 237.75 102.357C225.722 102.357 214.094 111.032 214.094 128.586C214.094 146.14 225.619 154.511 237.849 154.511C250.08 154.511 256.754 146.752 259.179 138.589L270.3 142.263C267.066 154.511 256.147 166.247 237.849 166.247C218.541 166.247 201.661 152.162 201.661 128.586H201.658Z" fill="#1B1CD6"/>
<path d="M324.481 139.814C324.481 155.123 313.665 166.247 298.906 166.247C284.148 166.247 273.431 155.123 273.431 139.814C273.431 124.504 284.247 113.481 298.906 113.481C313.566 113.481 324.481 124.605 324.481 139.814ZM312.655 139.814C312.655 129.506 306.187 124.197 298.906 124.197C291.626 124.197 285.158 129.502 285.158 139.814C285.158 150.125 291.729 155.635 298.906 155.635C306.084 155.635 312.655 150.225 312.655 139.814Z" fill="#1B1CD6"/>
<path d="M345.002 164.714H333.275V115.01H344.697V121.644C347.931 115.93 353.797 113.581 359.254 113.581C371.283 113.581 377.045 122.36 377.045 133.28V164.714H365.318V135.32C365.318 129.198 362.588 124.297 355.208 124.297C348.538 124.297 344.999 129.502 344.999 136.033V164.711L345.002 164.714Z" fill="#1B1CD6"/>
<path d="M400.499 164.714H388.772V115.01H400.194V121.644C403.428 115.93 409.293 113.581 414.751 113.581C426.779 113.581 432.542 122.36 432.542 133.28V164.714H420.815V135.32C420.815 129.198 418.084 124.297 410.705 124.297C404.034 124.297 400.495 129.502 400.495 136.033V164.711L400.499 164.714Z" fill="#1B1CD6"/>
<path d="M487.84 150.529C485.212 159.204 477.429 166.247 465.599 166.247C452.255 166.247 440.428 156.447 440.428 139.61C440.428 123.892 451.953 113.481 464.386 113.481C479.549 113.481 488.446 123.584 488.446 139.302C488.446 141.242 488.244 142.875 488.141 143.079H452.155C452.457 150.63 458.322 156.039 465.599 156.039C472.875 156.039 476.315 152.262 477.932 147.364L487.84 150.529ZM476.62 134.404C476.418 128.586 472.577 123.38 464.489 123.38C457.109 123.38 452.865 129.094 452.46 134.404H476.62Z" fill="#1B1CD6"/>
<path d="M505.024 139.814C505.024 149.817 511.393 155.431 518.773 155.431C526.152 155.431 529.993 150.021 531.106 146.244L541.418 150.021C539.092 157.779 531.712 166.25 518.773 166.25C504.315 166.25 493.297 154.922 493.297 139.817C493.297 124.712 504.315 113.485 518.468 113.485C531.709 113.485 538.989 121.855 541.01 129.814L530.496 133.692C529.383 129.302 526.049 124.404 518.567 124.404C511.085 124.404 505.021 129.814 505.021 139.817L505.024 139.814Z" fill="#1B1CD6"/>
<path d="M564.159 115.013H574.369V125.525H564.159V148.593C564.159 152.982 566.081 154.819 570.425 154.819C572.042 154.819 573.964 154.511 574.468 154.41V164.21C573.759 164.518 571.535 165.334 567.291 165.334C558.191 165.334 552.532 159.824 552.532 150.533V125.529H543.432V115.017H545.961C551.216 115.017 553.542 111.648 553.542 107.258V99.808H564.156V115.017L564.159 115.013Z" fill="#1B1CD6"/>
</svg>
